<?xml version="1.0" encoding="utf-8"?>
<!-- Generator: Adobe Illustrator 17.0.2, SVG Export Plug-In . SVG Version: 6.00 Build 0)  -->
<!DOCTYPE svg PUBLIC "-//W3C//DTD SVG 1.1//EN" "http://www.w3.org/Graphics/SVG/1.1/DTD/svg11.dtd">
<svg version="1.1" id="or_grid" xmlns="http://www.w3.org/2000/svg" xmlns:xlink="http://www.w3.org/1999/xlink" x="0px" y="0px"
	 width="37px" height="35px" viewBox="0 0 37 35" enable-background="new 0 0 37 35" xml:space="preserve">
<g>
	<path fill="#B4B4B4" d="M29.931,8.951v12.036c0,2.171-1.059,4.693-2.764,6.582c-1.407,1.559-3.868,3.417-7.607,3.417h-8.121
		c-6.425,0-10.37-5.823-10.37-9.998V8.951H29.931 M31,7.882H0v13.105c0,4.705,4.291,11.067,11.439,11.067c3.599,0,4.523,0,8.121,0
		c7.149,0,11.44-6.362,11.44-11.067V7.882L31,7.882z"/>
</g>
<line fill="none" stroke="#B4B4B4" stroke-miterlimit="10" x1="0" y1="13.315" x2="30" y2="13.315"/>
<g>
	<line fill="none" stroke="#B4B4B4" stroke-width="1.069" stroke-miterlimit="10" x1="7.5" y1="5.449" x2="7.5" y2="2"/>
	<line fill="none" stroke="#B4B4B4" stroke-width="1.069" stroke-miterlimit="10" x1="23.5" y1="5.449" x2="23.5" y2="2"/>
	<line fill="none" stroke="#B4B4B4" stroke-miterlimit="10" x1="15.5" y1="5.449" x2="15.5" y2="0"/>
</g>
<path fill="none" stroke="#B4B4B4" stroke-miterlimit="10" d="M30,12.449h3.551c1.347,0,2.449,1.102,2.449,2.449v4.101
	c0,1.347-1.102,2.449-2.449,2.449H30"/>
<line fill="none" stroke="#B4B4B4" stroke-width="0.9497" stroke-miterlimit="10" x1="4" y1="34.433" x2="27" y2="34.433"/>
</svg>
