<?xml version="1.0" encoding="utf-8"?>
<!-- Generator: Adobe Illustrator 17.0.2, SVG Export Plug-In . SVG Version: 6.00 Build 0)  -->
<!DOCTYPE svg PUBLIC "-//W3C//DTD SVG 1.1//EN" "http://www.w3.org/Graphics/SVG/1.1/DTD/svg11.dtd">
<svg version="1.1" id="Livello_1" xmlns="http://www.w3.org/2000/svg" xmlns:xlink="http://www.w3.org/1999/xlink" x="0px" y="0px"
	 width="16.5px" height="14.625px" viewBox="0 0 16.5 14.625" enable-background="new 0 0 16.5 14.625" xml:space="preserve">
<g>
	<g>
		<path fill="#676C6F" d="M11.413,0.792c2.048,0,4.337,1.38,4.337,4.148c0,5.012-7.5,8.852-7.5,8.852s-7.5-3.84-7.5-8.852
			c0-2.768,2.288-4.148,4.337-4.148c1.66,0,3.163,0.906,3.163,2.714C8.25,1.698,9.753,0.792,11.413,0.792 M11.413-0.026
			C11.413-0.026,11.413-0.026,11.413-0.026c-1.347,0-2.46,0.479-3.163,1.281C7.546,0.453,6.433-0.026,5.087-0.026
			c-2.499,0-5.155,1.74-5.155,4.966c0,5.449,7.621,9.414,7.945,9.58c0.117,0.06,0.245,0.09,0.373,0.09s0.256-0.03,0.373-0.09
			c0.324-0.166,7.945-4.13,7.945-9.58C16.568,1.715,13.912-0.026,11.413-0.026L11.413-0.026z"/>
	</g>
</g>
</svg>
