<?xml version="1.0" encoding="utf-8"?>
<!-- Generator: Adobe Illustrator 17.0.2, SVG Export Plug-In . SVG Version: 6.00 Build 0)  -->
<!DOCTYPE svg PUBLIC "-//W3C//DTD SVG 1.1//EN" "http://www.w3.org/Graphics/SVG/1.1/DTD/svg11.dtd">
<svg version="1.1" id="Livello_1" xmlns="http://www.w3.org/2000/svg" xmlns:xlink="http://www.w3.org/1999/xlink" x="0px" y="0px"
	 width="19px" height="25px" viewBox="0 0 19 25" enable-background="new 0 0 19 25" xml:space="preserve">
<g>
	<g>
		<path fill="#394042" d="M9.5,0.863c4.763,0,8.637,3.789,8.637,8.447c0,6.221-6.652,12.735-8.637,14.54
			c-1.986-1.804-8.637-8.311-8.637-14.54C0.863,4.652,4.737,0.863,9.5,0.863 M9.5,0C4.253,0,0,4.168,0,9.31C0,17.083,9.5,25,9.5,25
			S19,17.083,19,9.31C19,4.168,14.747,0,9.5,0L9.5,0z"/>
	</g>
	<g>
		<path fill="#394042" d="M9.5,5.043c2.641,0,4.79,2.093,4.79,4.665s-2.149,4.665-4.79,4.665S4.71,12.28,4.71,9.708
			S6.859,5.043,9.5,5.043 M9.5,4.18c-3.122,0-5.653,2.475-5.653,5.528s2.531,5.528,5.653,5.528s5.653-2.475,5.653-5.528
			S12.622,4.18,9.5,4.18L9.5,4.18z"/>
	</g>
</g>
</svg>
