<?xml version="1.0" encoding="utf-8"?>
<!-- Generator: Adobe Illustrator 17.0.2, SVG Export Plug-In . SVG Version: 6.00 Build 0)  -->
<!DOCTYPE svg PUBLIC "-//W3C//DTD SVG 1.1//EN" "http://www.w3.org/Graphics/SVG/1.1/DTD/svg11.dtd">
<svg version="1.1" id="or_grid" xmlns="http://www.w3.org/2000/svg" xmlns:xlink="http://www.w3.org/1999/xlink" x="0px" y="0px"
	 width="40px" height="43px" viewBox="0 0 40 43" enable-background="new 0 0 40 43" xml:space="preserve">
<polygon fill="none" stroke="#B4B4B4" stroke-miterlimit="10" points="20,0.459 10.5,12.117 10.5,31.5 29.5,31.5 29.5,12.117 "/>
<line fill="none" stroke="#B4B4B4" stroke-miterlimit="10" x1="17.5" y1="31" x2="17.5" y2="13"/>
<line fill="none" stroke="#B4B4B4" stroke-miterlimit="10" x1="23.5" y1="31" x2="23.5" y2="13"/>
<line fill="none" stroke="#B4B4B4" stroke-miterlimit="10" x1="10" y1="12.5" x2="30" y2="12.5"/>
<line fill="none" stroke="#B4B4B4" stroke-linecap="square" stroke-miterlimit="10" x1="16" y1="6.5" x2="24" y2="6.5"/>
<line fill="none" stroke="#B4B4B4" stroke-miterlimit="10" x1="17.5" y1="31" x2="17.5" y2="13"/>
<line fill="none" stroke="#B4B4B4" stroke-miterlimit="10" x1="23.5" y1="31" x2="23.5" y2="13"/>
<g>
	<path fill="#B4B4B4" d="M29.065,36.366c-0.83,2.367-4.384,5.175-9.065,5.175s-8.235-2.807-9.065-5.175H29.065 M30.25,35.366H9.75
		c0,3.218,4.589,7.175,10.25,7.175S30.25,38.584,30.25,35.366L30.25,35.366z"/>
</g>
<g>
	<path fill="#B4B4B4" d="M29.225,31.9V35h-18.45v-3.1H29.225 M30.225,30.9h-1h-18.45h-1v1V35v1h1h18.45h1v-1v-3.1V30.9L30.225,30.9z
		"/>
</g>
</svg>
