<?xml version="1.0" encoding="utf-8"?>
<!-- Generator: Adobe Illustrator 17.0.2, SVG Export Plug-In . SVG Version: 6.00 Build 0)  -->
<!DOCTYPE svg PUBLIC "-//W3C//DTD SVG 1.1//EN" "http://www.w3.org/Graphics/SVG/1.1/DTD/svg11.dtd">
<svg version="1.1" id="Livello_1" xmlns="http://www.w3.org/2000/svg" xmlns:xlink="http://www.w3.org/1999/xlink" x="0px" y="0px"
	 width="26px" height="22px" viewBox="0 0 26 22" enable-background="new 0 0 26 22" xml:space="preserve">
<g>
	<path fill="none" stroke="#707C80" stroke-miterlimit="10" d="M19.5,3.5c-1.1,0-2-0.675-2-1.5s-0.9-1.5-2-1.5h-5
		c-1.1,0-2,0.675-2,1.5s-0.9,1.5-2,1.5h-4c-1.1,0-2,0.9-2,2v14c0,1.1,0.9,2,2,2h21c1.1,0,2-0.9,2-2v-14c0-1.1-0.9-2-2-2H19.5z"/>
</g>
<circle fill="none" stroke="#707C80" stroke-miterlimit="10" cx="13" cy="12.5" r="5.5"/>
<circle fill="none" stroke="#707C80" stroke-width="0.7143" stroke-miterlimit="10" cx="13" cy="12.5" r="2.5"/>
<line fill="none" stroke="#707C80" stroke-miterlimit="10" x1="3" y1="6.5" x2="6" y2="6.5"/>
</svg>
