<?xml version="1.0" encoding="utf-8"?>
<!-- Generator: Adobe Illustrator 17.0.2, SVG Export Plug-In . SVG Version: 6.00 Build 0)  -->
<!DOCTYPE svg PUBLIC "-//W3C//DTD SVG 1.1//EN" "http://www.w3.org/Graphics/SVG/1.1/DTD/svg11.dtd">
<svg version="1.1" id="Livello_1" xmlns="http://www.w3.org/2000/svg" xmlns:xlink="http://www.w3.org/1999/xlink" x="0px" y="0px"
	 width="19px" height="21.75px" viewBox="0 0 19 21.75" enable-background="new 0 0 19 21.75" xml:space="preserve">
<g>
	<path fill="#394042" d="M9.548,1.03c3.552,0,5.331,2.958,5.331,6.425c0,6.329-3.771,6.426-4.001,6.426c-0.007,0-0.011,0-0.011,0
		s3.146,0.734,5.074,1.448c1.928,0.714,2.029,2.734,2.029,3.55c0,0.816,0,1.836,0,1.836H9.548H9.393H0.971c0,0,0-1.02,0-1.836
		c0-0.816,0.101-2.836,2.03-3.55c1.928-0.714,5.074-1.448,5.074-1.448s-0.004,0-0.011,0c-0.231,0-4.001-0.097-4.001-6.426
		c0-3.468,1.779-6.425,5.331-6.425H9.548 M9.548,0.03H9.393c-3.787,0-6.331,2.984-6.331,7.425c0,3.304,0.971,5.138,2.058,6.156
		c-0.838,0.236-1.732,0.508-2.468,0.78c-1.002,0.371-2.682,1.447-2.682,4.487v1.836v1h1h8.422h0.155h8.422h1v-1v-1.836
		c0-3.04-1.681-4.116-2.682-4.487c-0.736-0.273-1.631-0.545-2.47-0.781c1.09-1.018,2.061-2.852,2.061-6.155
		C15.879,3.014,13.335,0.03,9.548,0.03L9.548,0.03z"/>
</g>
</svg>
