<?xml version="1.0" encoding="utf-8"?>
<!-- Generator: Adobe Illustrator 17.0.2, SVG Export Plug-In . SVG Version: 6.00 Build 0)  -->
<!DOCTYPE svg PUBLIC "-//W3C//DTD SVG 1.1//EN" "http://www.w3.org/Graphics/SVG/1.1/DTD/svg11.dtd">
<svg version="1.1" id="or_grid" xmlns="http://www.w3.org/2000/svg" xmlns:xlink="http://www.w3.org/1999/xlink" x="0px" y="0px"
	 width="43px" height="39px" viewBox="0 0 43 39" enable-background="new 0 0 43 39" xml:space="preserve">
<line fill="none" stroke="#B4B4B4" stroke-miterlimit="10" x1="1" y1="10.551" x2="43" y2="10.551"/>
<rect x="9" y="4" fill="#B4B4B4" width="3" height="3"/>
<rect x="14" y="4" fill="#B4B4B4" width="3" height="3"/>
<rect x="4" y="4" fill="#B4B4B4" width="3" height="3"/>
<line fill="none" stroke="#B4B4B4" stroke-width="0.9672" stroke-miterlimit="10" x1="6" y1="18.402" x2="19" y2="18.402"/>
<line fill="none" stroke="#B4B4B4" stroke-width="0.9672" stroke-miterlimit="10" x1="6" y1="22.618" x2="19" y2="22.618"/>
<line fill="none" stroke="#B4B4B4" stroke-width="0.9672" stroke-miterlimit="10" x1="6" y1="26.375" x2="19" y2="26.375"/>
<g>
	<path fill="#B4B4B4" d="M36,19v11H25V19H36 M36.963,18.037H36H25h-0.963V19v11v0.963H25h11h0.963V30V19V18.037L36.963,18.037z"/>
</g>
<g>
	<path fill="#B4B4B4" d="M42.023,0.976v37.047H0.976V0.976H42.023 M43,0H0v39h43V0L43,0z"/>
</g>
</svg>
